<svg width="800" height="600" xmlns="http://www.w3.org/2000/svg" stroke="null" style="vector-effect: non-scaling-stroke;">
 <g stroke="null">
  <title stroke="null">Layer 1</title>
  <rect stroke="#000" filter="url(#svg_1_blur)" id="svg_1" height="621.41838" width="942.99997" y="36.08162" x="-66.99998" opacity="NaN" fill="#000000"/>
  <path transform="rotate(-26.32659149169922 71.53741455078132,538.2750244140625) " id="svg_3" d="m27.03741,515.86812l21.57796,-21.09307l22.92194,22.40665l22.92194,-22.40665l21.57817,21.09307l-22.92194,22.40684l22.92194,22.40684l-21.57817,21.09326l-22.92194,-22.40684l-22.92194,22.40684l-21.57796,-21.09326l22.92175,-22.40684l-22.92175,-22.40684z" opacity="undefined" stroke-opacity="null" stroke-dasharray="null" stroke-width="null" stroke="#000" fill="#B1FFFF"/>
  <path transform="rotate(60.938148498535156 725.5374145507812,100.27505493164067) " id="svg_7" d="m681.03741,77.86812l21.57797,-21.09307l22.92193,22.40666l22.92194,-22.40666l21.57817,21.09307l-22.92195,22.40683l22.92195,22.40684l-21.57817,21.09326l-22.92194,-22.40684l-22.92193,22.40684l-21.57797,-21.09326l22.92175,-22.40684l-22.92175,-22.40683z" opacity="undefined" stroke-opacity="null" stroke-dasharray="null" stroke-width="null" stroke="#000" fill="#B1FFFF"/>
  <path stroke="#000" id="svg_8" d="m375.97308,192.5452c-18.30453,0 -33.15036,-14.04405 -33.15036,-31.35999l0,0c0.01105,-13.8977 9.58045,-25.60543 22.80192,-29.70837l0,0c0.45858,-11.81226 10.70204,-21.24117 23.29365,-21.25162l0,0c4.03329,0 7.81796,0.99307 11.10537,2.70219l0,0c6.99473,-11.00213 19.72447,-18.37696 34.29957,-18.38218l0,0c21.80741,0.01045 39.54286,16.49013 40.04564,36.99957l0,0c13.05019,4.20224 22.4428,15.8577 22.45385,29.64042l0,0c0,17.31594 -14.84584,31.35999 -33.15036,31.35999l0,0l-87.69928,0l0,0zm91.72153,-51.87466c-2.82331,-0.49653 -4.77365,-2.93739 -4.50292,-5.63957l0,0c0.09393,-0.89376 0.14918,-1.75616 0.14918,-2.59765l0,0c-0.03868,-15.1521 -12.99494,-27.41386 -29.01209,-27.43477l0,0c-12.42586,-0.01045 -22.9953,7.41141 -27.13357,17.82293l0,0c-0.67406,1.68821 -2.24317,2.94784 -4.13275,3.2928l0,0c-1.87852,0.34496 -3.83439,-0.27179 -5.12173,-1.61504l0,0c-2.29843,-2.36768 -5.44771,-3.82069 -9.02242,-3.82069l0,0c-6.7682,0.01045 -12.24353,5.19008 -12.26563,11.59274l0,0c0,0.71083 0.09393,1.44256 0.24863,2.21611l0,0c0.27073,1.39029 -0.0442,2.8224 -0.90058,3.98272l0,0c-0.85638,1.16555 -2.16582,1.93909 -3.62996,2.16384l0,0c-10.49761,1.63595 -18.52,10.18677 -18.50895,20.54602l0,0c0.0221,11.5457 9.90091,20.88053 22.10577,20.91189l0,0l87.70481,0c12.20486,-0.03136 22.06709,-9.36618 22.09472,-20.91189l0,0c0.0221,-10.22858 -7.79034,-18.71146 -18.07247,-20.50944l0,0" opacity="undefined" stroke-opacity="null" stroke-dasharray="null" stroke-width="null" fill="#ffffff"/>
  <ellipse ry="7" rx="7" id="svg_9" cy="145" cx="409" opacity="undefined" stroke-opacity="null" stroke-dasharray="null" stroke-width="null" stroke="#000" fill="#ffffff"/>
  <ellipse ry="7" rx="6.5" id="svg_12" cy="146" cx="438.5" opacity="undefined" stroke-opacity="null" stroke-dasharray="null" stroke-width="null" stroke="#000" fill="#ffffff"/>
  <line stroke-linecap="null" stroke-linejoin="null" id="svg_13" y2="169" x2="429" y1="162" x1="381" opacity="undefined" stroke-opacity="null" stroke-dasharray="null" stroke-width="null" stroke="#000" fill="none"/>
  <rect transform="rotate(3.652947187423706 418.49999999999983,165.50000000000063) " id="svg_14" height="5" width="47" y="163" x="395" opacity="undefined" stroke-opacity="null" stroke-dasharray="null" stroke-width="null" stroke="#000" fill="#ffffff"/>
  <path id="svg_15" d="m414.10407,218.24898l-22.23541,21.93011l21.96053,7.53403l-20.29793,23.54386l-8.19509,-3.97574l5.81249,22.6937l23.0994,-9.90112l-9.75294,-4.13862l26.48352,-33.8166l-24.20892,-6.12903l23.37763,-22.85152l-13.33505,-3.43104l14.52386,-14.52334l-5.33545,-0.20872l-22.53816,19.92446l10.64151,3.34957l0,-0.00001z" opacity="undefined" stroke-opacity="null" stroke-dasharray="null" stroke-width="null" stroke="#000" fill="#FFFA8D"/>
  <text stroke="#000" transform="matrix(2.0055925846099854,0,0,2.142857074737549,-311.73370122909546,-406.8571186065674) " font-style="normal" font-weight="normal" xml:space="preserve" text-anchor="start" font-family="'Sacramento'" font-size="24" id="svg_17" y="349.06667" x="334.43447" opacity="undefined" stroke-opacity="null" stroke-dasharray="null" stroke-width="0" fill="#ffffff">404</text>
  <text stroke="#000" transform="matrix(1.0707182884216309,0,0,1.2413792610168457,-11.597799301147461,-86.17239618301392) " font-style="normal" font-weight="normal" xml:space="preserve" text-anchor="start" font-family="'Open Sans ExtraBold'" font-size="24" id="svg_18" y="390.47222" x="134.11352" opacity="undefined" stroke-opacity="null" stroke-dasharray="null" stroke-width="null" fill="#ffffff">Even our best wizards couldn't find this page</text>
  <path transform="rotate(27.62938117980957 494.52453613281244,97.35926055908196) " stroke="#000" id="svg_19" d="m494.52456,77.85926c-11.32236,0 -20.49999,8.73046 -20.49999,19.5c0,10.7701 9.17763,19.49999 20.49999,19.49999c11.32183,0 20.5,-8.72989 20.5,-19.49999c0,-10.76955 -9.17817,-19.5 -20.5,-19.5zm1.87301,30.73121l-3.81809,0l0,-3.48287l3.81809,0l0,3.48287zm0,-7.20169l0,1.15106l-3.81809,0l0,-1.41826c0,-4.27975 5.12015,-4.9589 5.12015,-8.00067c0,-1.38698 -1.3037,-2.44945 -3.01044,-2.44945c-1.7686,0 -3.3198,1.23958 -3.3198,1.23958l-2.17375,-2.56931c0,0 2.14255,-2.12553 5.83521,-2.12553c3.50765,0 6.7645,2.06617 6.7645,5.54955c0.00164,4.87296 -5.39777,5.43493 -5.39777,8.62303l0,0z" opacity="undefined" fill-opacity="null" stroke-opacity="null" stroke-dasharray="null" stroke-width="0" fill="#ffffff"/>
 </g>
 <defs stroke="null" style="vector-effect: non-scaling-stroke;">
  <filter style="vector-effect: non-scaling-stroke;" stroke="null" id="svg_1_blur">
   <feGaussianBlur style="vector-effect: non-scaling-stroke;" stroke="null" stdDeviation="0" in="SourceGraphic"/>
  </filter>
 </defs>
</svg>